<mxfile host="Electron" agent="Mozilla/5.0 (Windows NT 10.0; Win64; x64) AppleWebKit/537.36 (KHTML, like Gecko) draw.io/24.7.8 Chrome/128.0.6613.36 Electron/32.0.1 Safari/537.36" version="24.7.8">
  <diagram name="Page-1" id="rKXKSbG-rJBd0n83CsFM">
    <mxGraphModel dx="2899" dy="2294" grid="1" gridSize="10" guides="1" tooltips="1" connect="1" arrows="1" fold="1" page="1" pageScale="1" pageWidth="850" pageHeight="1100" math="0" shadow="0">
      <root>
        <mxCell id="0" />
        <mxCell id="1" parent="0" />
        <mxCell id="kLX442n7oc1yGY5g-aFO-5" value="&lt;font style=&quot;font-size: 15px;&quot;&gt;Workers&lt;/font&gt;" style="swimlane;fontStyle=1;align=center;verticalAlign=top;childLayout=stackLayout;horizontal=1;startSize=26;horizontalStack=0;resizeParent=1;resizeParentMax=0;resizeLast=0;collapsible=1;marginBottom=0;whiteSpace=wrap;html=1;fillColor=#dae8fc;strokeColor=#6c8ebf;" parent="1" vertex="1">
          <mxGeometry x="150" y="600" width="230" height="238" as="geometry" />
        </mxCell>
        <mxCell id="kLX442n7oc1yGY5g-aFO-6" value="+ workerID&lt;br&gt;&lt;div&gt;+ image: int&lt;/div&gt;&lt;div&gt;+ name : String&lt;/div&gt;&lt;div&gt;+ email: String&lt;/div&gt;&lt;div&gt;+ phoneNumber: Int&lt;/div&gt;&lt;div&gt;+ role (Administrator, Staff, Doctor): Bool&lt;/div&gt;&lt;div&gt;&lt;br&gt;&lt;/div&gt;" style="text;strokeColor=none;fillColor=none;align=left;verticalAlign=top;spacingLeft=4;spacingRight=4;overflow=hidden;rotatable=0;points=[[0,0.5],[1,0.5]];portConstraint=eastwest;whiteSpace=wrap;html=1;" parent="kLX442n7oc1yGY5g-aFO-5" vertex="1">
          <mxGeometry y="26" width="230" height="124" as="geometry" />
        </mxCell>
        <mxCell id="kLX442n7oc1yGY5g-aFO-7" value="" style="line;strokeWidth=1;fillColor=none;align=left;verticalAlign=middle;spacingTop=-1;spacingLeft=3;spacingRight=3;rotatable=0;labelPosition=right;points=[];portConstraint=eastwest;strokeColor=inherit;" parent="kLX442n7oc1yGY5g-aFO-5" vertex="1">
          <mxGeometry y="150" width="230" height="8" as="geometry" />
        </mxCell>
        <mxCell id="kLX442n7oc1yGY5g-aFO-8" value="-&amp;nbsp; getlogin(workerID): String&lt;div&gt;+ serachPatients( healthID) : int&lt;/div&gt;&lt;div&gt;&lt;br&gt;&lt;/div&gt;" style="text;strokeColor=none;fillColor=none;align=left;verticalAlign=top;spacingLeft=4;spacingRight=4;overflow=hidden;rotatable=0;points=[[0,0.5],[1,0.5]];portConstraint=eastwest;whiteSpace=wrap;html=1;" parent="kLX442n7oc1yGY5g-aFO-5" vertex="1">
          <mxGeometry y="158" width="230" height="80" as="geometry" />
        </mxCell>
        <mxCell id="c6BLKW05PTlq8Iq8Gtbe-1" value="Notes:&lt;br&gt;&lt;div&gt;1. Core entities in the system: Admin, Staff, Doctor, Patient, Exam, Results, Report, Monitor&lt;/div&gt;&lt;div&gt;2. Classes should support the use cases&lt;/div&gt;&lt;div&gt;3. design patterns (like MVC, Observer, Factory, etc.)&lt;/div&gt;&lt;div&gt;4  Single Responsibility&lt;/div&gt;" style="shape=note;whiteSpace=wrap;html=1;backgroundOutline=1;darkOpacity=0.05;" parent="1" vertex="1">
          <mxGeometry x="-680" y="60" width="250" height="180" as="geometry" />
        </mxCell>
        <mxCell id="NEkFFiVutFpPdjRCEoVY-19" value="" style="edgeStyle=orthogonalEdgeStyle;rounded=0;orthogonalLoop=1;jettySize=auto;html=1;entryX=0.393;entryY=0.993;entryDx=0;entryDy=0;entryPerimeter=0;" parent="1" source="c6BLKW05PTlq8Iq8Gtbe-2" target="c6BLKW05PTlq8Iq8Gtbe-32" edge="1">
          <mxGeometry relative="1" as="geometry">
            <mxPoint x="-265" y="499" as="targetPoint" />
          </mxGeometry>
        </mxCell>
        <mxCell id="c6BLKW05PTlq8Iq8Gtbe-2" value="Admin" style="swimlane;fontStyle=1;align=center;verticalAlign=top;childLayout=stackLayout;horizontal=1;startSize=26;horizontalStack=0;resizeParent=1;resizeParentMax=0;resizeLast=0;collapsible=1;marginBottom=0;whiteSpace=wrap;html=1;fillColor=#f8cecc;strokeColor=#b85450;" parent="1" vertex="1">
          <mxGeometry x="-380" y="684" width="270" height="270" as="geometry" />
        </mxCell>
        <mxCell id="c6BLKW05PTlq8Iq8Gtbe-3" value="- workerID&lt;br&gt;&lt;div&gt;+ image: int&lt;/div&gt;&lt;div&gt;+ name : String&lt;/div&gt;&lt;div&gt;+ email: String&lt;/div&gt;&lt;div&gt;+ phoneNumber: Int&lt;/div&gt;&lt;div&gt;+ role (Administrator): Bool&lt;/div&gt;&lt;div&gt;&lt;br&gt;&lt;/div&gt;" style="text;strokeColor=none;fillColor=none;align=left;verticalAlign=top;spacingLeft=4;spacingRight=4;overflow=hidden;rotatable=0;points=[[0,0.5],[1,0.5]];portConstraint=eastwest;whiteSpace=wrap;html=1;" parent="c6BLKW05PTlq8Iq8Gtbe-2" vertex="1">
          <mxGeometry y="26" width="270" height="104" as="geometry" />
        </mxCell>
        <mxCell id="c6BLKW05PTlq8Iq8Gtbe-4" value="" style="line;strokeWidth=1;fillColor=none;align=left;verticalAlign=middle;spacingTop=-1;spacingLeft=3;spacingRight=3;rotatable=0;labelPosition=right;points=[];portConstraint=eastwest;strokeColor=inherit;" parent="c6BLKW05PTlq8Iq8Gtbe-2" vertex="1">
          <mxGeometry y="130" width="270" height="8" as="geometry" />
        </mxCell>
        <mxCell id="c6BLKW05PTlq8Iq8Gtbe-5" value="+ createAccount()&lt;br&gt;+ approvePatientAccount()&lt;br&gt;+ deleteAccount()&lt;br&gt;+ deleteTestResults()&lt;br&gt;+ createMonthlyReport()&lt;br&gt;+ createYearlyReport()&lt;br&gt;+ createPredictionReport()&lt;br&gt;&lt;div&gt;+ deleteExams()&lt;/div&gt;" style="text;strokeColor=none;fillColor=none;align=left;verticalAlign=top;spacingLeft=4;spacingRight=4;overflow=hidden;rotatable=0;points=[[0,0.5],[1,0.5]];portConstraint=eastwest;whiteSpace=wrap;html=1;" parent="c6BLKW05PTlq8Iq8Gtbe-2" vertex="1">
          <mxGeometry y="138" width="270" height="132" as="geometry" />
        </mxCell>
        <mxCell id="c6BLKW05PTlq8Iq8Gtbe-6" value="Staff" style="swimlane;fontStyle=1;align=center;verticalAlign=top;childLayout=stackLayout;horizontal=1;startSize=26;horizontalStack=0;resizeParent=1;resizeParentMax=0;resizeLast=0;collapsible=1;marginBottom=0;whiteSpace=wrap;html=1;fillColor=#f8cecc;strokeColor=#b85450;" parent="1" vertex="1">
          <mxGeometry x="110" y="920" width="270" height="200" as="geometry" />
        </mxCell>
        <mxCell id="c6BLKW05PTlq8Iq8Gtbe-7" value="- workerID&lt;br&gt;&lt;div&gt;+ image: int&lt;/div&gt;&lt;div&gt;+ name : String&lt;/div&gt;&lt;div&gt;+ email: String&lt;/div&gt;&lt;div&gt;+ phoneNumber: Int&lt;/div&gt;&lt;div&gt;+ role (Staff): Bool&lt;/div&gt;&lt;div&gt;&lt;br&gt;&lt;/div&gt;" style="text;strokeColor=none;fillColor=none;align=left;verticalAlign=top;spacingLeft=4;spacingRight=4;overflow=hidden;rotatable=0;points=[[0,0.5],[1,0.5]];portConstraint=eastwest;whiteSpace=wrap;html=1;" parent="c6BLKW05PTlq8Iq8Gtbe-6" vertex="1">
          <mxGeometry y="26" width="270" height="104" as="geometry" />
        </mxCell>
        <mxCell id="c6BLKW05PTlq8Iq8Gtbe-8" value="" style="line;strokeWidth=1;fillColor=none;align=left;verticalAlign=middle;spacingTop=-1;spacingLeft=3;spacingRight=3;rotatable=0;labelPosition=right;points=[];portConstraint=eastwest;strokeColor=inherit;" parent="c6BLKW05PTlq8Iq8Gtbe-6" vertex="1">
          <mxGeometry y="130" width="270" height="8" as="geometry" />
        </mxCell>
        <mxCell id="c6BLKW05PTlq8Iq8Gtbe-9" value="+ createResults()&lt;br&gt;- editResults()" style="text;strokeColor=none;fillColor=none;align=left;verticalAlign=top;spacingLeft=4;spacingRight=4;overflow=hidden;rotatable=0;points=[[0,0.5],[1,0.5]];portConstraint=eastwest;whiteSpace=wrap;html=1;" parent="c6BLKW05PTlq8Iq8Gtbe-6" vertex="1">
          <mxGeometry y="138" width="270" height="62" as="geometry" />
        </mxCell>
        <mxCell id="c6BLKW05PTlq8Iq8Gtbe-10" value="Doctors" style="swimlane;fontStyle=1;align=center;verticalAlign=top;childLayout=stackLayout;horizontal=1;startSize=26;horizontalStack=0;resizeParent=1;resizeParentMax=0;resizeLast=0;collapsible=1;marginBottom=0;whiteSpace=wrap;html=1;fillColor=#f8cecc;strokeColor=#b85450;" parent="1" vertex="1">
          <mxGeometry x="550" y="490" width="270" height="280" as="geometry" />
        </mxCell>
        <mxCell id="c6BLKW05PTlq8Iq8Gtbe-11" value="- workerID&lt;br&gt;&lt;div&gt;+ image: int&lt;/div&gt;&lt;div&gt;+ name : String&lt;/div&gt;&lt;div&gt;+ email: String&lt;/div&gt;&lt;div&gt;+ phoneNumber: Int&lt;/div&gt;&lt;div&gt;+ role (Doctor): Bool&lt;/div&gt;&lt;div&gt;&lt;br&gt;&lt;/div&gt;" style="text;strokeColor=none;fillColor=none;align=left;verticalAlign=top;spacingLeft=4;spacingRight=4;overflow=hidden;rotatable=0;points=[[0,0.5],[1,0.5]];portConstraint=eastwest;whiteSpace=wrap;html=1;" parent="c6BLKW05PTlq8Iq8Gtbe-10" vertex="1">
          <mxGeometry y="26" width="270" height="104" as="geometry" />
        </mxCell>
        <mxCell id="c6BLKW05PTlq8Iq8Gtbe-12" value="" style="line;strokeWidth=1;fillColor=none;align=left;verticalAlign=middle;spacingTop=-1;spacingLeft=3;spacingRight=3;rotatable=0;labelPosition=right;points=[];portConstraint=eastwest;strokeColor=inherit;" parent="c6BLKW05PTlq8Iq8Gtbe-10" vertex="1">
          <mxGeometry y="130" width="270" height="8" as="geometry" />
        </mxCell>
        <mxCell id="c6BLKW05PTlq8Iq8Gtbe-13" value="+ viewPatientResults()&lt;br&gt;+ prescribeExam()&lt;br&gt;+ viewPredictionReports()&lt;br&gt;+ createSmartMonitor()&lt;br&gt;+ modifySmartMonitor()&lt;br&gt;+ deleteSmartMonitor()" style="text;strokeColor=none;fillColor=none;align=left;verticalAlign=top;spacingLeft=4;spacingRight=4;overflow=hidden;rotatable=0;points=[[0,0.5],[1,0.5]];portConstraint=eastwest;whiteSpace=wrap;html=1;" parent="c6BLKW05PTlq8Iq8Gtbe-10" vertex="1">
          <mxGeometry y="138" width="270" height="142" as="geometry" />
        </mxCell>
        <mxCell id="c6BLKW05PTlq8Iq8Gtbe-14" style="edgeStyle=orthogonalEdgeStyle;rounded=0;orthogonalLoop=1;jettySize=auto;html=1;entryX=-0.017;entryY=0.045;entryDx=0;entryDy=0;entryPerimeter=0;endArrow=block;endFill=0;strokeWidth=1;endSize=13;" parent="1" source="c6BLKW05PTlq8Iq8Gtbe-3" target="kLX442n7oc1yGY5g-aFO-8" edge="1">
          <mxGeometry relative="1" as="geometry" />
        </mxCell>
        <mxCell id="c6BLKW05PTlq8Iq8Gtbe-16" style="edgeStyle=orthogonalEdgeStyle;rounded=0;orthogonalLoop=1;jettySize=auto;html=1;endArrow=block;endFill=0;endSize=13;entryX=1.002;entryY=0.042;entryDx=0;entryDy=0;entryPerimeter=0;" parent="1" source="c6BLKW05PTlq8Iq8Gtbe-10" target="kLX442n7oc1yGY5g-aFO-6" edge="1">
          <mxGeometry relative="1" as="geometry">
            <mxPoint x="530" y="405.2000732421875" as="targetPoint" />
          </mxGeometry>
        </mxCell>
        <mxCell id="c6BLKW05PTlq8Iq8Gtbe-17" style="edgeStyle=orthogonalEdgeStyle;rounded=0;orthogonalLoop=1;jettySize=auto;html=1;endArrow=block;endFill=0;endSize=13;" parent="1" source="c6BLKW05PTlq8Iq8Gtbe-6" edge="1">
          <mxGeometry relative="1" as="geometry">
            <mxPoint x="245" y="840" as="targetPoint" />
          </mxGeometry>
        </mxCell>
        <mxCell id="c6BLKW05PTlq8Iq8Gtbe-19" value="User" style="swimlane;fontStyle=1;align=center;verticalAlign=top;childLayout=stackLayout;horizontal=1;startSize=26;horizontalStack=0;resizeParent=1;resizeParentMax=0;resizeLast=0;collapsible=1;marginBottom=0;whiteSpace=wrap;html=1;fillColor=#dae8fc;strokeColor=#6c8ebf;" parent="1" vertex="1">
          <mxGeometry x="260" y="200" width="230" height="250" as="geometry" />
        </mxCell>
        <mxCell id="c6BLKW05PTlq8Iq8Gtbe-20" value="&lt;div&gt;+ userID: int(NOT SURE)&lt;/div&gt;&lt;div&gt;+ phoneNumber: int&lt;br&gt;&lt;/div&gt;&lt;div&gt;+ name: String&lt;/div&gt;&lt;div&gt;+ email: string&lt;/div&gt;&lt;div&gt;- password: String&lt;/div&gt;&lt;div&gt;+ role: enum(Patient, Staff, Doctor, Admin)&lt;/div&gt;" style="text;strokeColor=none;fillColor=none;align=left;verticalAlign=top;spacingLeft=4;spacingRight=4;overflow=hidden;rotatable=0;points=[[0,0.5],[1,0.5]];portConstraint=eastwest;whiteSpace=wrap;html=1;" parent="c6BLKW05PTlq8Iq8Gtbe-19" vertex="1">
          <mxGeometry y="26" width="230" height="124" as="geometry" />
        </mxCell>
        <mxCell id="c6BLKW05PTlq8Iq8Gtbe-21" value="" style="line;strokeWidth=1;fillColor=none;align=left;verticalAlign=middle;spacingTop=-1;spacingLeft=3;spacingRight=3;rotatable=0;labelPosition=right;points=[];portConstraint=eastwest;strokeColor=inherit;" parent="c6BLKW05PTlq8Iq8Gtbe-19" vertex="1">
          <mxGeometry y="150" width="230" height="8" as="geometry" />
        </mxCell>
        <mxCell id="c6BLKW05PTlq8Iq8Gtbe-22" value="&lt;div&gt;+ login()&lt;/div&gt;&lt;div&gt;+ logout()&lt;/div&gt;&lt;div&gt;+ modifyAccountInfo()&lt;/div&gt;&lt;div&gt;- getRecord(name, email, phoneNumber, password)(NOT SURE)&lt;br&gt;&lt;/div&gt;" style="text;strokeColor=none;fillColor=none;align=left;verticalAlign=top;spacingLeft=4;spacingRight=4;overflow=hidden;rotatable=0;points=[[0,0.5],[1,0.5]];portConstraint=eastwest;whiteSpace=wrap;html=1;" parent="c6BLKW05PTlq8Iq8Gtbe-19" vertex="1">
          <mxGeometry y="158" width="230" height="92" as="geometry" />
        </mxCell>
        <mxCell id="c6BLKW05PTlq8Iq8Gtbe-24" style="edgeStyle=orthogonalEdgeStyle;rounded=0;orthogonalLoop=1;jettySize=auto;html=1;entryX=0.496;entryY=1.009;entryDx=0;entryDy=0;entryPerimeter=0;endArrow=block;endFill=0;endSize=13;" parent="1" source="kLX442n7oc1yGY5g-aFO-5" target="c6BLKW05PTlq8Iq8Gtbe-22" edge="1">
          <mxGeometry relative="1" as="geometry" />
        </mxCell>
        <mxCell id="c6BLKW05PTlq8Iq8Gtbe-29" value="&lt;font style=&quot;font-size: 15px;&quot;&gt;Patient&lt;/font&gt;" style="swimlane;fontStyle=1;align=center;verticalAlign=top;childLayout=stackLayout;horizontal=1;startSize=26;horizontalStack=0;resizeParent=1;resizeParentMax=0;resizeLast=0;collapsible=1;marginBottom=0;whiteSpace=wrap;html=1;fillColor=#f8cecc;strokeColor=#b85450;" parent="1" vertex="1">
          <mxGeometry x="-355" y="191" width="270" height="288" as="geometry" />
        </mxCell>
        <mxCell id="c6BLKW05PTlq8Iq8Gtbe-30" value="&lt;div style=&quot;&quot;&gt;&lt;font style=&quot;font-size: 12px;&quot;&gt;+ healthID:&amp;nbsp;&lt;br&gt;+ name: String&lt;br&gt;&lt;font style=&quot;font-size: 12px;&quot;&gt;+ email: String&lt;/font&gt;&lt;/font&gt;&lt;/div&gt;&lt;div style=&quot;&quot;&gt;&lt;font style=&quot;font-size: 12px;&quot;&gt;+ phoneNumber: int&lt;/font&gt;&lt;/div&gt;&lt;div style=&quot;&quot;&gt;&lt;font style=&quot;font-size: 12px;&quot;&gt;- DOB: string&lt;/font&gt;&lt;/div&gt;&lt;div style=&quot;&quot;&gt;&lt;font style=&quot;font-size: 12px;&quot;&gt;- status: Bool(pending, verified)&lt;/font&gt;&lt;/div&gt;" style="text;strokeColor=none;fillColor=none;align=left;verticalAlign=top;spacingLeft=4;spacingRight=4;overflow=hidden;rotatable=0;points=[[0,0.5],[1,0.5]];portConstraint=eastwest;whiteSpace=wrap;html=1;" parent="c6BLKW05PTlq8Iq8Gtbe-29" vertex="1">
          <mxGeometry y="26" width="270" height="114" as="geometry" />
        </mxCell>
        <mxCell id="c6BLKW05PTlq8Iq8Gtbe-31" value="" style="line;strokeWidth=1;fillColor=none;align=left;verticalAlign=middle;spacingTop=-1;spacingLeft=3;spacingRight=3;rotatable=0;labelPosition=right;points=[];portConstraint=eastwest;strokeColor=inherit;" parent="c6BLKW05PTlq8Iq8Gtbe-29" vertex="1">
          <mxGeometry y="140" width="270" height="8" as="geometry" />
        </mxCell>
        <mxCell id="c6BLKW05PTlq8Iq8Gtbe-32" value="&lt;div&gt;+ createAccount(healthID, name, email,phoneNumber, DOB, status) : char&lt;/div&gt;&lt;div&gt;&lt;br&gt;&lt;/div&gt;&lt;div&gt;+ modifyAccount(&lt;span style=&quot;background-color: initial;&quot;&gt;healthID, name, email,phoneNumber, DOB, status): char&lt;/span&gt;&lt;/div&gt;&lt;div&gt;&lt;br&gt;&lt;/div&gt;&lt;div&gt;+ searchResults(date, item, abnormal)&lt;/div&gt;&lt;div&gt;&lt;br&gt;- getResults(healthID) -&amp;gt; String[]&lt;br&gt;&lt;/div&gt;&lt;div&gt;&lt;br&gt;&lt;/div&gt;" style="text;strokeColor=none;fillColor=none;align=left;verticalAlign=top;spacingLeft=4;spacingRight=4;overflow=hidden;rotatable=0;points=[[0,0.5],[1,0.5]];portConstraint=eastwest;whiteSpace=wrap;html=1;" parent="c6BLKW05PTlq8Iq8Gtbe-29" vertex="1">
          <mxGeometry y="148" width="270" height="140" as="geometry" />
        </mxCell>
        <mxCell id="c6BLKW05PTlq8Iq8Gtbe-33" value="Exam Results" style="swimlane;fontStyle=1;align=center;verticalAlign=top;childLayout=stackLayout;horizontal=1;startSize=26;horizontalStack=0;resizeParent=1;resizeParentMax=0;resizeLast=0;collapsible=1;marginBottom=0;whiteSpace=wrap;html=1;fillColor=#d5e8d4;strokeColor=#82b366;" parent="1" vertex="1">
          <mxGeometry x="140" y="-140" width="230" height="250" as="geometry" />
        </mxCell>
        <mxCell id="c6BLKW05PTlq8Iq8Gtbe-34" value="+ resultId: int&lt;br&gt;- patientId: int&lt;br&gt;+ testType: Sting&lt;br&gt;+ testDate: Date&lt;br&gt;+ status enum(normal/abnormal)" style="text;strokeColor=none;fillColor=none;align=left;verticalAlign=top;spacingLeft=4;spacingRight=4;overflow=hidden;rotatable=0;points=[[0,0.5],[1,0.5]];portConstraint=eastwest;whiteSpace=wrap;html=1;" parent="c6BLKW05PTlq8Iq8Gtbe-33" vertex="1">
          <mxGeometry y="26" width="230" height="124" as="geometry" />
        </mxCell>
        <mxCell id="c6BLKW05PTlq8Iq8Gtbe-35" value="" style="line;strokeWidth=1;fillColor=none;align=left;verticalAlign=middle;spacingTop=-1;spacingLeft=3;spacingRight=3;rotatable=0;labelPosition=right;points=[];portConstraint=eastwest;strokeColor=inherit;" parent="c6BLKW05PTlq8Iq8Gtbe-33" vertex="1">
          <mxGeometry y="150" width="230" height="8" as="geometry" />
        </mxCell>
        <mxCell id="c6BLKW05PTlq8Iq8Gtbe-36" value="+ modifyResult()&lt;br&gt;+ deleteResult()&lt;span style=&quot;background-color: initial;&quot;&gt;&amp;nbsp;&lt;/span&gt;&lt;div&gt;String getPatientResults( resultsId, patientID, testType, testDate, status);&lt;/div&gt;&lt;div&gt;&lt;br&gt;&lt;/div&gt;" style="text;strokeColor=none;fillColor=none;align=left;verticalAlign=top;spacingLeft=4;spacingRight=4;overflow=hidden;rotatable=0;points=[[0,0.5],[1,0.5]];portConstraint=eastwest;whiteSpace=wrap;html=1;" parent="c6BLKW05PTlq8Iq8Gtbe-33" vertex="1">
          <mxGeometry y="158" width="230" height="92" as="geometry" />
        </mxCell>
        <mxCell id="c6BLKW05PTlq8Iq8Gtbe-37" value="Exam" style="swimlane;fontStyle=1;align=center;verticalAlign=top;childLayout=stackLayout;horizontal=1;startSize=26;horizontalStack=0;resizeParent=1;resizeParentMax=0;resizeLast=0;collapsible=1;marginBottom=0;whiteSpace=wrap;html=1;fillColor=#d5e8d4;strokeColor=#82b366;" parent="1" vertex="1">
          <mxGeometry x="490" y="-145" width="280" height="260" as="geometry" />
        </mxCell>
        <mxCell id="c6BLKW05PTlq8Iq8Gtbe-38" value="&lt;div&gt;+ examid: int&lt;/div&gt;&lt;div&gt;+ patientid: int&lt;/div&gt;&lt;div&gt;+ examItem: String&lt;br&gt;&lt;/div&gt;&lt;div&gt;+ date: Date&lt;/div&gt;&lt;div&gt;+ category: String&lt;/div&gt;" style="text;strokeColor=none;fillColor=none;align=left;verticalAlign=top;spacingLeft=4;spacingRight=4;overflow=hidden;rotatable=0;points=[[0,0.5],[1,0.5]];portConstraint=eastwest;whiteSpace=wrap;html=1;" parent="c6BLKW05PTlq8Iq8Gtbe-37" vertex="1">
          <mxGeometry y="26" width="280" height="124" as="geometry" />
        </mxCell>
        <mxCell id="c6BLKW05PTlq8Iq8Gtbe-39" value="" style="line;strokeWidth=1;fillColor=none;align=left;verticalAlign=middle;spacingTop=-1;spacingLeft=3;spacingRight=3;rotatable=0;labelPosition=right;points=[];portConstraint=eastwest;strokeColor=inherit;" parent="c6BLKW05PTlq8Iq8Gtbe-37" vertex="1">
          <mxGeometry y="150" width="280" height="8" as="geometry" />
        </mxCell>
        <mxCell id="c6BLKW05PTlq8Iq8Gtbe-40" value="+ prescribeExam()&lt;div&gt;&lt;br&gt;&lt;/div&gt;&lt;div&gt;Char modifyExam(examID,patientID,examItem, date, category)&lt;/div&gt;" style="text;strokeColor=none;fillColor=none;align=left;verticalAlign=top;spacingLeft=4;spacingRight=4;overflow=hidden;rotatable=0;points=[[0,0.5],[1,0.5]];portConstraint=eastwest;whiteSpace=wrap;html=1;" parent="c6BLKW05PTlq8Iq8Gtbe-37" vertex="1">
          <mxGeometry y="158" width="280" height="102" as="geometry" />
        </mxCell>
        <mxCell id="c6BLKW05PTlq8Iq8Gtbe-41" value="Report" style="swimlane;fontStyle=1;align=center;verticalAlign=top;childLayout=stackLayout;horizontal=1;startSize=26;horizontalStack=0;resizeParent=1;resizeParentMax=0;resizeLast=0;collapsible=1;marginBottom=0;whiteSpace=wrap;html=1;fillColor=#d5e8d4;strokeColor=#82b366;" parent="1" vertex="1">
          <mxGeometry x="-790" y="702" width="230" height="238" as="geometry" />
        </mxCell>
        <mxCell id="c6BLKW05PTlq8Iq8Gtbe-42" value="+ reportId: int&lt;br&gt;+ reportType enum(monthly, yearly, prediction)&lt;br&gt;+ dateCreated: String&lt;br&gt;+ content String" style="text;strokeColor=none;fillColor=none;align=left;verticalAlign=top;spacingLeft=4;spacingRight=4;overflow=hidden;rotatable=0;points=[[0,0.5],[1,0.5]];portConstraint=eastwest;whiteSpace=wrap;html=1;" parent="c6BLKW05PTlq8Iq8Gtbe-41" vertex="1">
          <mxGeometry y="26" width="230" height="124" as="geometry" />
        </mxCell>
        <mxCell id="c6BLKW05PTlq8Iq8Gtbe-43" value="" style="line;strokeWidth=1;fillColor=none;align=left;verticalAlign=middle;spacingTop=-1;spacingLeft=3;spacingRight=3;rotatable=0;labelPosition=right;points=[];portConstraint=eastwest;strokeColor=inherit;" parent="c6BLKW05PTlq8Iq8Gtbe-41" vertex="1">
          <mxGeometry y="150" width="230" height="8" as="geometry" />
        </mxCell>
        <mxCell id="c6BLKW05PTlq8Iq8Gtbe-44" value="+ generateReport(): String&lt;br&gt;+ viewReport() : String" style="text;strokeColor=none;fillColor=none;align=left;verticalAlign=top;spacingLeft=4;spacingRight=4;overflow=hidden;rotatable=0;points=[[0,0.5],[1,0.5]];portConstraint=eastwest;whiteSpace=wrap;html=1;" parent="c6BLKW05PTlq8Iq8Gtbe-41" vertex="1">
          <mxGeometry y="158" width="230" height="80" as="geometry" />
        </mxCell>
        <mxCell id="c6BLKW05PTlq8Iq8Gtbe-45" value="Monitor" style="swimlane;fontStyle=1;align=center;verticalAlign=top;childLayout=stackLayout;horizontal=1;startSize=26;horizontalStack=0;resizeParent=1;resizeParentMax=0;resizeLast=0;collapsible=1;marginBottom=0;whiteSpace=wrap;html=1;fillColor=#d5e8d4;strokeColor=#82b366;" parent="1" vertex="1">
          <mxGeometry x="-200" y="-145" width="230" height="290" as="geometry" />
        </mxCell>
        <mxCell id="c6BLKW05PTlq8Iq8Gtbe-46" value="+ monitorId: int&lt;br&gt;+ patientId: int &lt;br&gt;+ parameters String[]&lt;br&gt;+ status enum (active, inactive)&lt;div&gt;+ upperBound()&lt;/div&gt;&lt;div&gt;+ lowerBound();&lt;/div&gt;&lt;div&gt;staus: bool (send, notSend);&lt;/div&gt;" style="text;strokeColor=none;fillColor=none;align=left;verticalAlign=top;spacingLeft=4;spacingRight=4;overflow=hidden;rotatable=0;points=[[0,0.5],[1,0.5]];portConstraint=eastwest;whiteSpace=wrap;html=1;" parent="c6BLKW05PTlq8Iq8Gtbe-45" vertex="1">
          <mxGeometry y="26" width="230" height="124" as="geometry" />
        </mxCell>
        <mxCell id="c6BLKW05PTlq8Iq8Gtbe-47" value="" style="line;strokeWidth=1;fillColor=none;align=left;verticalAlign=middle;spacingTop=-1;spacingLeft=3;spacingRight=3;rotatable=0;labelPosition=right;points=[];portConstraint=eastwest;strokeColor=inherit;" parent="c6BLKW05PTlq8Iq8Gtbe-45" vertex="1">
          <mxGeometry y="150" width="230" height="8" as="geometry" />
        </mxCell>
        <mxCell id="c6BLKW05PTlq8Iq8Gtbe-48" value="+ checkAbnormalResults()&lt;br&gt;+ modifyMonitor( monitorID, patientID, parameters, status);&lt;br&gt;+ deleteMonitor();&lt;br&gt;&lt;div&gt;+&amp;nbsp;&lt;/div&gt;&lt;div&gt;&lt;br&gt;&lt;/div&gt;" style="text;strokeColor=none;fillColor=none;align=left;verticalAlign=top;spacingLeft=4;spacingRight=4;overflow=hidden;rotatable=0;points=[[0,0.5],[1,0.5]];portConstraint=eastwest;whiteSpace=wrap;html=1;" parent="c6BLKW05PTlq8Iq8Gtbe-45" vertex="1">
          <mxGeometry y="158" width="230" height="132" as="geometry" />
        </mxCell>
        <mxCell id="KpaCmmg_O-ahOkZ_EsFG-1" value="System" style="swimlane;fontStyle=1;align=center;verticalAlign=top;childLayout=stackLayout;horizontal=1;startSize=26;horizontalStack=0;resizeParent=1;resizeParentMax=0;resizeLast=0;collapsible=1;marginBottom=0;whiteSpace=wrap;html=1;fillColor=#ffe6cc;strokeColor=#d79b00;" parent="1" vertex="1">
          <mxGeometry x="-640" y="1220" width="230" height="238" as="geometry" />
        </mxCell>
        <mxCell id="KpaCmmg_O-ahOkZ_EsFG-2" value="_" style="text;strokeColor=none;fillColor=none;align=left;verticalAlign=top;spacingLeft=4;spacingRight=4;overflow=hidden;rotatable=0;points=[[0,0.5],[1,0.5]];portConstraint=eastwest;whiteSpace=wrap;html=1;" parent="KpaCmmg_O-ahOkZ_EsFG-1" vertex="1">
          <mxGeometry y="26" width="230" height="124" as="geometry" />
        </mxCell>
        <mxCell id="KpaCmmg_O-ahOkZ_EsFG-3" value="" style="line;strokeWidth=1;fillColor=none;align=left;verticalAlign=middle;spacingTop=-1;spacingLeft=3;spacingRight=3;rotatable=0;labelPosition=right;points=[];portConstraint=eastwest;strokeColor=inherit;" parent="KpaCmmg_O-ahOkZ_EsFG-1" vertex="1">
          <mxGeometry y="150" width="230" height="8" as="geometry" />
        </mxCell>
        <mxCell id="KpaCmmg_O-ahOkZ_EsFG-4" value="_" style="text;strokeColor=none;fillColor=none;align=left;verticalAlign=top;spacingLeft=4;spacingRight=4;overflow=hidden;rotatable=0;points=[[0,0.5],[1,0.5]];portConstraint=eastwest;whiteSpace=wrap;html=1;" parent="KpaCmmg_O-ahOkZ_EsFG-1" vertex="1">
          <mxGeometry y="158" width="230" height="80" as="geometry" />
        </mxCell>
        <mxCell id="NEkFFiVutFpPdjRCEoVY-1" value="1..*" style="text;html=1;align=center;verticalAlign=middle;resizable=0;points=[];autosize=1;strokeColor=none;fillColor=none;" parent="1" vertex="1">
          <mxGeometry x="-85" y="380" width="40" height="30" as="geometry" />
        </mxCell>
        <mxCell id="NEkFFiVutFpPdjRCEoVY-2" value="1..1" style="text;html=1;align=center;verticalAlign=middle;resizable=0;points=[];autosize=1;strokeColor=none;fillColor=none;" parent="1" vertex="1">
          <mxGeometry x="220" y="380" width="40" height="30" as="geometry" />
        </mxCell>
        <mxCell id="NEkFFiVutFpPdjRCEoVY-3" value="Creates" style="text;html=1;align=center;verticalAlign=middle;resizable=0;points=[];autosize=1;strokeColor=none;fillColor=none;" parent="1" vertex="1">
          <mxGeometry x="50" y="350" width="70" height="30" as="geometry" />
        </mxCell>
        <mxCell id="NEkFFiVutFpPdjRCEoVY-4" value="one or more patient creates exactly one account" style="shape=note;size=20;whiteSpace=wrap;html=1;" parent="1" vertex="1">
          <mxGeometry x="30" y="410" width="110" height="100" as="geometry" />
        </mxCell>
        <mxCell id="NEkFFiVutFpPdjRCEoVY-5" value="1..*" style="text;html=1;align=center;verticalAlign=middle;resizable=0;points=[];autosize=1;strokeColor=none;fillColor=none;" parent="1" vertex="1">
          <mxGeometry x="-120" y="768" width="40" height="30" as="geometry" />
        </mxCell>
        <mxCell id="NEkFFiVutFpPdjRCEoVY-7" value="1..*" style="text;html=1;align=center;verticalAlign=middle;resizable=0;points=[];autosize=1;strokeColor=none;fillColor=none;" parent="1" vertex="1">
          <mxGeometry x="100" y="770" width="40" height="30" as="geometry" />
        </mxCell>
        <mxCell id="NEkFFiVutFpPdjRCEoVY-8" value="Creates, Delete, or Modify&amp;nbsp;" style="text;html=1;align=center;verticalAlign=middle;resizable=0;points=[];autosize=1;strokeColor=none;fillColor=none;" parent="1" vertex="1">
          <mxGeometry x="-80" y="768" width="170" height="30" as="geometry" />
        </mxCell>
        <mxCell id="NEkFFiVutFpPdjRCEoVY-9" value="More than 1 admin can create, delete, or modify more than 1 workers account." style="shape=note;size=20;whiteSpace=wrap;html=1;" parent="1" vertex="1">
          <mxGeometry x="-85" y="582" width="110" height="120" as="geometry" />
        </mxCell>
        <mxCell id="NEkFFiVutFpPdjRCEoVY-20" value="1..*" style="text;html=1;align=center;verticalAlign=middle;resizable=0;points=[];autosize=1;strokeColor=none;fillColor=none;" parent="1" vertex="1">
          <mxGeometry x="-240" y="654" width="40" height="30" as="geometry" />
        </mxCell>
        <mxCell id="NEkFFiVutFpPdjRCEoVY-21" value="1..*" style="text;html=1;align=center;verticalAlign=middle;resizable=0;points=[];autosize=1;strokeColor=none;fillColor=none;" parent="1" vertex="1">
          <mxGeometry x="-255" y="479" width="40" height="30" as="geometry" />
        </mxCell>
        <mxCell id="NEkFFiVutFpPdjRCEoVY-22" value="Approves" style="text;html=1;align=center;verticalAlign=middle;resizable=0;points=[];autosize=1;strokeColor=none;fillColor=none;" parent="1" vertex="1">
          <mxGeometry x="-240" y="550" width="70" height="30" as="geometry" />
        </mxCell>
        <mxCell id="NEkFFiVutFpPdjRCEoVY-23" value="More than 1 admin approves of more than 1 patient account created" style="shape=note;size=20;whiteSpace=wrap;html=1;" parent="1" vertex="1">
          <mxGeometry x="-410" y="520" width="120" height="120" as="geometry" />
        </mxCell>
        <mxCell id="NEkFFiVutFpPdjRCEoVY-24" style="edgeStyle=orthogonalEdgeStyle;rounded=0;orthogonalLoop=1;jettySize=auto;html=1;entryX=-0.009;entryY=0.257;entryDx=0;entryDy=0;entryPerimeter=0;exitX=1.008;exitY=0.304;exitDx=0;exitDy=0;exitPerimeter=0;" parent="1" source="c6BLKW05PTlq8Iq8Gtbe-32" target="c6BLKW05PTlq8Iq8Gtbe-22" edge="1">
          <mxGeometry relative="1" as="geometry">
            <mxPoint x="-40" y="380" as="sourcePoint" />
            <mxPoint x="190" y="380" as="targetPoint" />
          </mxGeometry>
        </mxCell>
        <mxCell id="AVmITo4gjJoYUAI0rvd1-9" value="Predict Report" style="swimlane;fontStyle=1;align=center;verticalAlign=top;childLayout=stackLayout;horizontal=1;startSize=26;horizontalStack=0;resizeParent=1;resizeParentMax=0;resizeLast=0;collapsible=1;marginBottom=0;whiteSpace=wrap;html=1;fillColor=#d5e8d4;strokeColor=#82b366;" parent="1" vertex="1">
          <mxGeometry x="-370" y="1050" width="230" height="208" as="geometry" />
        </mxCell>
        <mxCell id="AVmITo4gjJoYUAI0rvd1-10" value="&lt;div&gt;+ predictID: int&lt;/div&gt;&lt;div&gt;+ workingID: int&lt;/div&gt;&lt;div&gt;+ examID: int&lt;/div&gt;&lt;div&gt;+ date: date&lt;/div&gt;&lt;div&gt;+ prediction: String&lt;/div&gt;" style="text;strokeColor=none;fillColor=none;align=left;verticalAlign=top;spacingLeft=4;spacingRight=4;overflow=hidden;rotatable=0;points=[[0,0.5],[1,0.5]];portConstraint=eastwest;whiteSpace=wrap;html=1;" parent="AVmITo4gjJoYUAI0rvd1-9" vertex="1">
          <mxGeometry y="26" width="230" height="94" as="geometry" />
        </mxCell>
        <mxCell id="AVmITo4gjJoYUAI0rvd1-11" value="" style="line;strokeWidth=1;fillColor=none;align=left;verticalAlign=middle;spacingTop=-1;spacingLeft=3;spacingRight=3;rotatable=0;labelPosition=right;points=[];portConstraint=eastwest;strokeColor=inherit;" parent="AVmITo4gjJoYUAI0rvd1-9" vertex="1">
          <mxGeometry y="120" width="230" height="8" as="geometry" />
        </mxCell>
        <mxCell id="AVmITo4gjJoYUAI0rvd1-12" value="&lt;div&gt;+&amp;nbsp; getForDoctor( predictID, workingID, examID, date, prediction): String&lt;/div&gt;" style="text;strokeColor=none;fillColor=none;align=left;verticalAlign=top;spacingLeft=4;spacingRight=4;overflow=hidden;rotatable=0;points=[[0,0.5],[1,0.5]];portConstraint=eastwest;whiteSpace=wrap;html=1;" parent="AVmITo4gjJoYUAI0rvd1-9" vertex="1">
          <mxGeometry y="128" width="230" height="80" as="geometry" />
        </mxCell>
        <mxCell id="AVmITo4gjJoYUAI0rvd1-14" value="1..*" style="text;html=1;align=center;verticalAlign=middle;resizable=0;points=[];autosize=1;strokeColor=none;fillColor=none;" parent="1" vertex="1">
          <mxGeometry x="-560" y="760" width="40" height="30" as="geometry" />
        </mxCell>
        <mxCell id="AVmITo4gjJoYUAI0rvd1-16" value="1..*" style="text;html=1;align=center;verticalAlign=middle;resizable=0;points=[];autosize=1;strokeColor=none;fillColor=none;" parent="1" vertex="1">
          <mxGeometry x="-420" y="760" width="40" height="30" as="geometry" />
        </mxCell>
        <mxCell id="AVmITo4gjJoYUAI0rvd1-17" value="Generates" style="text;html=1;align=center;verticalAlign=middle;resizable=0;points=[];autosize=1;strokeColor=none;fillColor=none;" parent="1" vertex="1">
          <mxGeometry x="-510" y="730" width="80" height="30" as="geometry" />
        </mxCell>
        <mxCell id="AVmITo4gjJoYUAI0rvd1-19" style="edgeStyle=orthogonalEdgeStyle;rounded=0;orthogonalLoop=1;jettySize=auto;html=1;exitX=0;exitY=0.5;exitDx=0;exitDy=0;entryX=1;entryY=0.274;entryDx=0;entryDy=0;entryPerimeter=0;" parent="1" source="c6BLKW05PTlq8Iq8Gtbe-3" target="c6BLKW05PTlq8Iq8Gtbe-42" edge="1">
          <mxGeometry relative="1" as="geometry" />
        </mxCell>
        <mxCell id="AVmITo4gjJoYUAI0rvd1-20" value="" style="endArrow=classic;html=1;rounded=0;exitX=0.467;exitY=1.015;exitDx=0;exitDy=0;exitPerimeter=0;entryX=0.5;entryY=0;entryDx=0;entryDy=0;" parent="1" source="c6BLKW05PTlq8Iq8Gtbe-5" target="AVmITo4gjJoYUAI0rvd1-9" edge="1">
          <mxGeometry width="50" height="50" relative="1" as="geometry">
            <mxPoint x="-180" y="1090" as="sourcePoint" />
            <mxPoint x="-130" y="1040" as="targetPoint" />
          </mxGeometry>
        </mxCell>
        <mxCell id="AVmITo4gjJoYUAI0rvd1-23" value="Generates&amp;nbsp;" style="text;html=1;align=center;verticalAlign=middle;resizable=0;points=[];autosize=1;strokeColor=none;fillColor=none;" parent="1" vertex="1">
          <mxGeometry x="-260" y="988" width="80" height="30" as="geometry" />
        </mxCell>
        <mxCell id="AVmITo4gjJoYUAI0rvd1-24" value="For" style="text;html=1;align=center;verticalAlign=middle;resizable=0;points=[];autosize=1;strokeColor=none;fillColor=none;" parent="1" vertex="1">
          <mxGeometry x="245" y="1160" width="40" height="30" as="geometry" />
        </mxCell>
        <mxCell id="AVmITo4gjJoYUAI0rvd1-26" value="" style="endArrow=classic;html=1;rounded=0;exitX=1.005;exitY=0.834;exitDx=0;exitDy=0;exitPerimeter=0;entryX=0.462;entryY=1.003;entryDx=0;entryDy=0;entryPerimeter=0;" parent="1" source="AVmITo4gjJoYUAI0rvd1-10" target="c6BLKW05PTlq8Iq8Gtbe-13" edge="1">
          <mxGeometry width="50" height="50" relative="1" as="geometry">
            <mxPoint x="30" y="1180" as="sourcePoint" />
            <mxPoint x="560" y="870" as="targetPoint" />
            <Array as="points">
              <mxPoint x="675" y="1154" />
            </Array>
          </mxGeometry>
        </mxCell>
      </root>
    </mxGraphModel>
  </diagram>
</mxfile>
